<?xml version="1.0" encoding="UTF-8"?>
<svg id="f0a8f4ba-cc2b-4400-9e08-d246a0bad060" xmlns="http://www.w3.org/2000/svg" version="1.1" viewBox="0 0 1098.8 632.4">
  <!-- Generator: Adobe Illustrator 29.2.1, SVG Export Plug-In . SVG Version: 2.1.0 Build 116)  -->
  <defs>
    <style>
      .st0 {
        fill: #2f2e41;
      }

      .st1 {
        fill: #fff;
      }

      .st2 {
        fill: #3f3d56;
      }

      .st3 {
        fill: #ffb9b9;
      }

      .st4 {
        fill: #f2f2f2;
      }

      .st5 {
        opacity: .1;
      }

      .st5, .st6 {
        isolation: isolate;
      }

      .st6 {
        opacity: .3;
      }

      .st6, .st7 {
        fill: #55198b;
      }

      .st8 {
        fill: #575a89;
      }
    </style>
  </defs>
  <ellipse class="st4" cx="549.4" cy="600.8" rx="549.4" ry="31.6"/>
  <rect class="st4" x="175" width="825.3" height="26.3"/>
  <circle class="st7" cx="197.1" cy="12.7" r="6.8"/>
  <circle class="st7" cx="219.1" cy="12.7" r="6.8"/>
  <circle class="st7" cx="241.2" cy="12.7" r="6.8"/>
  <polygon class="st2" points="175.6 415.3 175 415.8 175 592.9 1000.3 592.9 1000.3 281.8 990.4 282.5 175.6 415.3"/>
  <rect class="st2" x="234.5" y="175.6" width="230.5" height="9.3"/>
  <rect class="st2" x="234.5" y="196.1" width="230.5" height="9.3"/>
  <rect class="st2" x="234.5" y="216.5" width="78.1" height="9.3"/>
  <rect class="st1" x="704.5" y="433.6" width="230.5" height="9.3"/>
  <rect class="st1" x="704.5" y="454.1" width="230.5" height="9.3"/>
  <rect class="st1" x="704.5" y="474.5" width="78.1" height="9.3"/>
  <circle class="st4" cx="561.3" cy="575.3" r="9.1"/>
  <circle class="st4" cx="587.6" cy="576.2" r="9.1"/>
  <circle class="st4" cx="613.9" cy="577.1" r="9.1"/>
  <circle class="st2" cx="587.7" cy="576.2" r="7.3"/>
  <rect class="st2" x="310.5" y="282" width="78.1" height="17.8"/>
  <rect class="st1" x="774.5" y="523" width="78.1" height="17.8"/>
  <circle class="st6" cx="350" cy="291" r="54"/>
  <circle class="st6" cx="350" cy="291" r="36"/>
  <circle class="st7" cx="350" cy="291" r="25"/>
  <circle class="st6" cx="804.4" cy="157.2" r="54"/>
  <circle class="st6" cx="804.4" cy="157.2" r="36"/>
  <circle class="st7" cx="804.4" cy="157.2" r="25"/>
  <circle class="st6" cx="814" cy="532" r="54"/>
  <circle class="st6" cx="814" cy="532" r="36"/>
  <circle class="st7" cx="814" cy="532" r="25"/>
  <rect class="st7" x="87.2" y="84.3" width="28.6" height="22.2" transform="translate(2.3 193.2) rotate(-87.8)"/>
  <path class="st3" d="M191.3,180.9s30.8-14.7,30.3-2-31,21.1-31,21.1l.7-19.1Z"/>
  <path class="st0" d="M174.4,288.3s14.5,35.5,19.9,61.2,13.5,60.9,3,86-40.4,98.6-40.7,106.5,2.6,16-3.8,15.8-40.9-11.1-42.3-16,11.8-17,11.8-17l32.6-102.1-34-66.5-24.5,99.2-4.8,123.8s-23.6-7.3-27-1c0,0-10.6-14.7-11.9-21.1s5-128.6,5-128.6c0,0-21.6-139.2-4.2-138.5s85.9-41.2,120.9-1.7h0Z"/>
  <path class="st0" d="M153.1,551.4s16.1,35.6,17.6,37.3,12,18,4.1,17.6-26.7-9-40.5-22.2-32-36.2-30.3-37.7,12.9-5.9,12.9-5.9l36.1,10.9h0Z"/>
  <path class="st0" d="M88.7,571.2s1,15.9,3.9,22.4,2.6,16-5.4,15.7-28.5-4.3-28.5-4.3c0,0-1.2-9.6.4-11.1s8.7-18.7,5.7-23.6,23.8.9,23.8.9h.1Z"/>
  <path class="st3" d="M77,54s-16.9,26.4-23.5,32.5,12,19.5,12,19.5l33.2,4.5s-.4-30.2,1.3-33.3-23-23.1-23-23.1h0Z"/>
  <path class="st7" d="M105.8,88.5s-6.8,12.5-13.2,12.2-39.2-14.2-40.6-19.1-10.9,34.6-10.9,34.6l80.4,141.4,19.6-13.5-9.5-83-7.8-44.8-18-27.7h0Z"/>
  <path class="st8" d="M49.1,215.1c3.2,6.7,5.2,13.7,4.9,20.9v1c-.8,14.7-6.2,31.7-8.1,44-1.4,8.9-1,15.3,4.2,16.9,12.6,3.7-1.8,6.3,46.8,22.5,48.7,16.2,57.2,2.2,57.3-1s-6.9-27.3-5.2-28.8,23.1,20,29.5,17,.7-19.1.7-19.1c0,0-14.6-34-14.3-41.9s-22.1-45.4-22.1-45.4l-15.2-99.2s-5.9-12.9-13.7-14.8-14.4,2.6-14.4,2.6l13.2,29.1,13.9,51.4-2.3,19s-16.2-34-26.8-47.1-33.3-44.2-33.3-44.2c0,0-5.3-17.8-1.3-23.2,4-5.3-16.6-6.1-25.4,15.8-4.7,11.6-12.2,28.9-17,45.1-4.2,14.3-6.2,27.6-2,35.3,6.4,11.7,22.5,27,30.7,44.1h0Z"/>
  <path class="st8" d="M49.1,215.1c3.2,6.7,5.2,13.7,4.9,20.9v1c-.8,14.7-6.2,31.7-8.1,44-1.4,8.9-1,15.3,4.2,16.9,12.6,3.7-1.8,6.3,46.8,22.5,48.7,16.2,57.2,2.2,57.3-1s-6.9-27.3-5.2-28.8,23.1,20,29.5,17,.7-19.1.7-19.1c0,0-14.6-34-14.3-41.9s-22.1-45.4-22.1-45.4l-15.2-99.2s-5.9-12.9-13.7-14.8-14.4,2.6-14.4,2.6l13.2,29.1,13.9,51.4-2.3,19s-16.2-34-26.8-47.1-33.3-44.2-33.3-44.2c0,0-5.3-17.8-1.3-23.2,4-5.3-16.6-6.1-25.4,15.8-4.7,11.6-12.2,28.9-17,45.1-4.2,14.3-6.2,27.6-2,35.3,6.4,11.7,22.5,27,30.7,44.1h0Z"/>
  <path class="st5" d="M18.4,171c6.4,11.7,22.5,27,30.7,44.1,2.1-7.7,4.8-15.7,4.8-15.7,0,0,10-53.7-19.6-67.5-4.9-.5-9.8.9-13.8,3.9-4.2,14.3-6.2,27.6-2,35.3h0Z"/>
  <path class="st8" d="M136.2,167.6l25.2,7.3,34.9,1.4,3.6,30.3-57.4,4.1s-14.3-40.3-6.3-43.2h0Z"/>
  <path class="st3" d="M95.1,269.6s33.7,5.6,26,15.7-37.5-.5-37.5-.5l11.5-15.2Z"/>
  <path class="st5" d="M54,236.9c-.8,14.7-6.2,31.7-8.1,44,10.7,10.1,20.9,19.1,24.8,19.2,7.9.3,20.7-.8,25.4,1s7.5-28.3,7.5-28.3c0,0-2.8-9.6-15.3-14.9-8.4-3.6-24.6-13.2-34.2-21h0Z"/>
  <path class="st8" d="M34.6,122.3s-26.9-4.2-25.4,40.4-2.8,73,8,81.4c10.8,8.4,45.9,46.3,53.8,46.6,7.9.3,20.7-.8,25.4,1s7.5-28.3,7.5-28.3c0,0-2.8-9.6-15.3-14.9s-42-23.9-41.8-30.2,7.5-28.3,7.5-28.3c0,0,10-53.7-19.6-67.5v-.2Z"/>
  <path class="st0" d="M124.2,8c.8.7,1.9,1.2,2.9,1.5,1.1.2,2.2-.5,2.4-1.7.8,1.7,1.7,3.4,3.3,4.3s4.2.1,4.4-1.7c.2,1.4.9,2.7,1.8,3.7,1,1,2.9,1.2,3.7.1-.7,3.9-.3,7.9-.5,11.9s-1.3,8.2-4.3,10.8c-4.4,3.8-10.9,2.9-16.7,2.1-.9-.2-1.8,0-2.6,0-2.2.9-2.1,3.9-2.1,6.3-.4,8.5-6.8,15.5-15.2,16.5-2.3.4-4.6-.2-6.5-1.6-1.6-1.4-2.5-3.6-4.3-4.7-3.6-2-8,1.7-10,4.8s-1.1,1.6-1.8,2.3c-7,6.7-12.5.3-14.8-5.5-4.7-12.1-4.4-25.6,1-37.5C74.5-.9,107-4.1,124.2,8Z"/>
  <path class="st4" d="M963.2,563.8c12.3,21,37.1,29.3,37.1,29.3,0,0,4.9-25.7-7.4-46.7s-37.1-29.3-37.1-29.3c0,0-4.9,25.7,7.4,46.7Z"/>
  <path class="st7" d="M970.9,556.4c21.3,11.8,30.2,36.4,30.2,36.4,0,0-25.6,5.5-46.9-6.3s-30.2-36.4-30.2-36.4c0,0,25.6-5.5,46.9,6.3Z"/>
</svg>